<svg xmlns="http://www.w3.org/2000/svg" version="1.1" xmlns:xlink="http://www.w3.org/1999/xlink" width="512" height="512" x="0" y="0" viewBox="0 0 512.001 512.001" style="enable-background:new 0 0 512 512" xml:space="preserve" class=""><g><path d="M512 256c0 2.1-.021 4.19-.073 6.269a266.76 266.76 0 0 1-.731 14.221 251.683 251.683 0 0 1-1.86 16.509C491.415 416.852 384.815 512 256 512 123.005 512 13.688 410.582 1.191 280.858A260.756 260.756 0 0 1 0 256c0-9.843.554-19.56 1.64-29.111C9.362 158.626 43.938 98.503 94.553 57.334a255.623 255.623 0 0 1 54.115-33.813C181.311 8.422 217.673 0 256 0s74.689 8.422 107.332 23.521a255.277 255.277 0 0 1 35.579 20.052C456.38 82.307 497.267 143.747 508.73 215.03a245.305 245.305 0 0 1 2.111 16.509A255.28 255.28 0 0 1 512 256z" style="" fill="#f0efeb" data-original="#f0efeb" class=""></path><path d="M83.08 213.191c-19.028 0-34.45 12.267-34.45 40.939 0 28.682 15.423 40.939 34.45 40.939s34.45-11.076 34.45-40.939c0-29.467-15.423-40.939-34.45-40.939zm0 64.679c-6.625 0-12.006-7.116-12.006-23.74s5.381-23.74 12.006-23.74 11.995 6.656 11.995 23.74c0 17.314-5.371 23.74-11.995 23.74zM32.569 231.476c4.535 0 8.485.345 11.64 1.62v-18.704c-3.448-1.003-7.137-1.536-11.003-1.536-12.664 0-24.001 5.204-31.566 14.033A257.637 257.637 0 0 0 0 256c0 8.391.408 16.677 1.191 24.858 7.565 9.132 19.101 14.545 32.016 14.545 3.866 0 7.555-.533 11.003-1.536v-19.425c-3.49 1.212-7.784 2.351-11.64 2.351-10.167 0-18.411-9.258-18.411-22.664-.001-13.405 8.244-22.653 18.41-22.653zM459.337 231.476c4.524 0 8.485.345 11.63 1.62v-18.704c-3.448-1.003-7.126-1.536-10.992-1.536-22.8 0-41.273 16.854-41.273 41.273 0 24.43 18.474 41.273 41.273 41.273 3.866 0 7.544-.533 10.992-1.536v-19.425c-3.479 1.212-7.785 2.351-11.63 2.351-10.167 0-18.411-9.258-18.411-22.664 0-13.404 8.244-22.652 18.411-22.652zM200.382 215.03h-26.373l-9.173 43.803-9.173-43.803h-26.375l-10.09 77.973h19.952l5.504-53.435 13.76 53.435h12.843l13.76-53.435 5.504 53.435h19.952zM295.664 215.03H269.29l-9.173 43.803-9.173-43.803h-26.373l-10.091 77.973h19.951l5.505-53.435 13.76 53.435h12.843l13.759-53.435 5.505 53.435h19.952zM355.413 231.541V215.03h-42.656v77.973h42.656v-16.512h-21.558v-14.218h18.577V245.76h-18.577v-14.219zM498.5 262.27v14.221h12.695a251.683 251.683 0 0 1-1.86 16.509h-31.943v-77.97h31.336a245.305 245.305 0 0 1 2.111 16.509H498.5v14.221h13.302c.136 3.396.199 6.813.199 10.24 0 2.1-.021 4.19-.073 6.269l-13.428.001z" style="" fill="#353535" data-original="#353535" class=""></path><path d="M405.232 257.818c7.053-3.166 12.79-8.934 12.79-19.623 0-17.889-18.119-23.165-30.96-23.165h-25.684V293h21.096v-35.777L399.903 293h22.246l-16.917-35.182zm-22.758-9.655c-.23 0-.46 0-.69-.01v-18.087c.23-.01.46-.01.69-.01 7.774 0 14.075 2.403 14.075 9.059 0 7.105-6.301 9.048-14.075 9.048z" style="" fill="#353535" data-original="#353535" class=""></path><path d="M371.674 23.518H123.067c-15.751 0-28.518 12.768-28.518 28.518v93.607c0 15.751 12.769 28.518 28.518 28.518h118.314l52.436 30.465-10.472-30.465h88.329c15.751 0 28.518-12.768 28.518-28.518V52.036c.001-15.751-12.768-28.518-28.518-28.518z" style="" fill="#9c5a90" data-original="#9c5a90" class=""></path><path d="m138.998 159.93-.126-.001a10.487 10.487 0 0 1-8.547-4.589c-3.045-4.478-7.509-14.802-15.059-55.225-4.047-21.666-7.089-42.07-7.119-42.273-.852-5.73 3.103-11.064 8.833-11.916 5.726-.853 11.064 3.102 11.916 8.833.029.199 3.003 20.136 6.96 41.345 2.286 12.251 4.241 21.39 5.865 28.19 9.89-18.226 21.962-42.736 27.276-53.805a10.487 10.487 0 0 1 19.723 2.4c1.737 8.308 6.237 25.608 12.63 41.31 2.358-22.325 6.921-50.657 15.62-68.49 2.539-5.206 8.819-7.368 14.025-4.828s7.368 8.819 4.828 14.025c-13.832 28.356-15.903 92.95-15.923 93.6a10.488 10.488 0 0 1-17.9 7.104c-9.397-9.397-17.963-25.591-25.462-48.132-.324-.975-.639-1.94-.946-2.893-9.194 18.298-21.28 41.482-28.065 50.964a10.499 10.499 0 0 1-8.529 4.381zM301.819 71.419c-4.368-8.871-11.87-15.005-21.671-17.732-11.18-3.103-23.291 1.024-32.402 11.055-10.815 11.88-18.704 34.147-8.422 60.98 7.043 18.39 18.119 21.765 25.276 21.765.773 0 1.494-.042 2.163-.104 19.048-1.808 35.046-27.011 38.128-44.293 2.215-12.382 1.181-23.04-3.072-31.671zm-17.575 27.982c-.972 5.402-4.347 12.549-8.62 18.202-4.389 5.82-8.694 8.694-10.836 8.892-1.306.125-3.73-2.675-5.872-8.276-4.305-11.222-5.747-28.275 4.347-39.372 3.009-3.312 6.51-5.183 9.519-5.183.606 0 1.191.073 1.745.23 11.232 3.125 11.482 15.591 9.717 25.507zM379.737 71.419c-2.194-4.43-5.162-8.192-8.798-11.17-3.657-2.978-7.983-5.193-12.884-6.562-11.17-3.103-23.28 1.024-32.402 11.055-10.804 11.88-18.693 34.147-8.422 60.98 7.043 18.39 18.119 21.765 25.276 21.765.773 0 1.505-.042 2.173-.104 19.038-1.808 35.035-27.011 38.118-44.293 2.216-12.382 1.181-23.04-3.061-31.671zm-17.586 27.982c-.961 5.402-4.347 12.549-8.61 18.202-4.399 5.82-8.704 8.694-10.846 8.892-1.296.125-3.73-2.675-5.872-8.276-4.295-11.222-5.736-28.275 4.347-39.372 3.02-3.312 6.52-5.183 9.519-5.183.606 0 1.191.073 1.755.23 11.233 3.125 11.473 15.591 9.707 25.507z" style="" fill="#ffffff" data-original="#ffffff" class=""></path></g></svg>
